<?xml version="1.0" encoding="UTF-8"?>
<svg xmlns="http://www.w3.org/2000/svg" xml:space="preserve" width="2488px" height="2488px" version="1.1"
    shape-rendering="geometricPrecision" text-rendering="geometricPrecision" image-rendering="optimizeQuality"
    fill-rule="evenodd" clip-rule="evenodd" viewBox="0 0 2488 2488" xmlns:xlink="http://www.w3.org/1999/xlink">
    <path fill="#01000C"
        d="M1518 2168c22,-6 16,47 16,59 0,14 7,63 -12,66 -27,4 -18,-43 -18,-59 -1,-14 -1,-27 -1,-40 0,-15 -1,-21 15,-26zm950 -958l0 54c-13,635 -505,1155 -1152,1182 -10,1 -21,1 -31,1l-43 0c-638,-9 -1173,-497 -1195,-1150 -1,-6 -1,-13 -1,-20l0 -48c13,-636 506,-1168 1153,-1197 659,-29 1238,487 1268,1149 1,10 1,19 1,29zm-1025 1057c-52,-18 -57,24 -69,28 -11,4 -14,-10 -13,-19 2,-13 32,-81 40,-94 35,-53 77,82 73,103 -1,9 -14,11 -21,4 -4,-6 -7,-15 -10,-22zm-171 -51c7,-12 26,-45 39,-48 28,-6 24,43 24,59 1,15 8,70 -18,67 -21,-3 -11,-57 -15,-72l-30 43 -32 -43c-3,17 5,60 -9,70 -25,11 -23,-25 -23,-40 0,-20 0,-43 2,-63 3,-24 20,-28 36,-11 9,10 17,32 26,38zm-152 29c-6,13 4,33 -7,44 -35,34 -27,-91 -23,-111 3,-13 29,-11 40,-11 12,0 37,-1 47,5 21,11 2,21 -12,23 -12,2 -38,1 -46,4 -12,34 41,6 53,23 19,27 -41,22 -52,23zm-138 -20c-2,11 8,87 -24,66 -12,-8 -9,-67 -8,-82 1,-9 -1,-33 9,-37 12,-5 24,3 32,11 11,11 36,49 40,52 3,-19 -3,-46 5,-64l24 1c3,5 -1,111 -5,118 -31,13 -52,-54 -73,-65zm713 -109c17,-43 90,-30 112,-49 15,-14 21,-30 41,-39 55,-26 69,25 107,-50 13,-27 14,-24 37,-43 16,-12 11,-29 38,-42 26,-12 40,-7 66,-1 27,9 -23,56 -32,66 -18,18 -36,39 -54,57 -82,81 -155,138 -259,189 -25,12 -142,69 -161,58 -15,-24 41,-36 55,-41 15,-6 66,-23 49,-47 -20,-13 -77,33 -103,30l-1 -31 105 -57zm-1180 -192l16 19c23,8 30,54 47,68 21,17 56,-5 87,28 41,42 17,29 77,39 32,5 49,24 74,41l87 52 0 31 -95 -32c-36,40 120,44 93,91 -36,7 -246,-114 -282,-142 -41,-30 -193,-174 -209,-214l-5 -8c21,-6 45,-15 68,-10 17,4 36,20 42,37zm208 90c-22,-13 -64,-61 -83,-82 -13,-13 -25,-35 -28,-53 -3,-19 4,-49 20,-61l41 31c-2,8 -18,29 -22,40 -7,14 -8,41 13,39 14,-8 12,-48 34,-63l35 16c2,12 -12,43 -13,62 -2,24 4,48 3,71zm1384 -195c25,-10 42,28 17,38 -28,12 -41,-28 -17,-38zm-1717 2c25,-11 40,30 15,38 -26,8 -40,-28 -15,-38zm270 -31c39,-10 61,-16 105,-11 27,3 66,13 81,35 -7,6 -45,12 -62,22 -20,11 -29,30 -53,8 4,-13 20,-17 10,-30 -10,-14 -20,0 -28,7 -14,11 -19,2 -31,-6 -9,-7 -19,-13 -22,-25zm973 26c3,-17 43,-92 69,-67 26,26 -48,67 -69,67zm-734 -1c-11,-3 -33,-25 -45,-32 -12,-9 -14,-6 -15,-23 -1,-13 -1,-27 0,-39 26,-4 79,62 60,94zm1236 -107c12,-13 38,-16 52,-5 41,14 40,86 -14,95 -63,10 -74,-72 -38,-90zm-1511 64c0,-44 97,-90 111,-75 2,2 15,42 16,46 -22,5 -46,2 -71,8 -17,4 -41,20 -56,21zm-277 -75c20,-7 34,28 13,33 -25,7 -34,-25 -13,-33zm53 96c-53,6 -107,-43 -115,-94 8,0 20,20 26,27 51,55 102,34 89,67zm409 -41l-21 0 -23 -58c15,-1 32,-1 45,7 3,13 2,38 -1,51zm1253 7c-11,37 -69,113 -95,144 -42,50 -79,79 -144,97 2,-16 6,-35 10,-51 4,-25 5,-22 22,-37 10,-9 56,-54 62,-56 5,-16 -3,-22 -17,-26 -13,0 -47,70 -100,75 0,-22 11,-36 28,-50 119,-104 85,-165 172,-206 33,-15 93,-27 128,-19l-66 129zm225 -128c-14,47 -76,59 -96,20 -25,-29 -3,-78 34,-86 39,-8 75,26 62,66zm-667 133c-6,-34 68,-245 123,-174 39,49 -24,61 -42,94 -3,4 -12,26 -13,27 -1,1 -24,9 -30,12 -18,11 -34,39 -38,41zm-1330 -205c16,8 29,23 32,41 31,47 -53,99 -95,43 -40,-53 18,-120 63,-84zm607 152c-23,-13 -100,-124 -106,-151 55,29 105,83 106,151zm-156 -59c-52,0 -66,-136 -45,-159 26,5 109,143 119,172l-41 -5c-5,-21 -32,-119 -60,-108 -11,20 30,66 27,100zm1140 81c-18,52 -60,98 -118,97 -14,-1 -48,-5 -58,-14 10,-8 20,-15 27,-28 15,-38 -18,-72 5,-99 10,-12 29,-14 43,-6 14,8 14,23 23,36 23,0 24,-23 14,-39 -10,-16 -19,-20 -34,-31 1,-25 14,-36 -1,-62 -9,-16 -26,-22 -35,-37 -27,-49 36,-54 73,-31 73,44 75,138 61,214zm-1283 -125c-43,0 -154,-85 -153,-107 35,-4 73,9 98,32 21,19 46,47 55,75zm-377 -145c60,19 -4,90 -23,37 -6,-9 -10,-23 -9,-34l32 -3zm87 14c68,15 119,66 172,105 51,37 118,75 164,115l-13 8 -17 14c-10,-7 -45,-45 -58,-33 -9,15 37,34 48,41l-8 59c1,18 7,13 -2,34 -4,9 -7,18 -10,28 -19,69 59,112 72,147 -66,-18 -173,-180 -210,-240 -31,-48 -56,-94 -82,-144 -12,-25 -82,-126 -83,-140l27 6zm1372 83c-3,4 -23,21 -29,26 -10,8 -18,17 -26,28 -3,-37 23,-139 56,-156 7,-22 28,-57 52,-64l38 75c-18,15 -40,12 -54,38 -16,30 9,34 -37,53zm-901 -123c19,13 108,115 114,134 -24,-6 -130,-93 -141,-112l27 -22zm1054 -42c43,-11 60,51 58,88 -2,28 -10,12 -27,12 -18,0 -18,-1 -33,-13 -49,-36 -25,-81 2,-87zm-1255 42c8,-7 41,-18 50,-11 26,21 39,144 33,165l-83 -154zm1414 99c2,-19 27,-70 36,-88 31,-60 22,-41 71,-32 -4,14 -44,46 -55,59 -13,15 -38,52 -52,61zm-1318 -151c3,-5 21,-23 26,-27l12 8 38 41 -49 44c-12,-8 -35,-35 -43,-49l16 -17zm1242 219c-25,-15 6,-75 12,-97 24,-81 -4,-140 27,-166 43,-36 83,38 47,71 -13,11 -11,3 -22,6 -5,11 -7,39 -10,52 -5,25 -38,128 -54,134zm123 -63c13,-36 72,-92 104,-115 43,-32 95,-60 149,-70 11,-2 38,-8 45,3 5,8 -2,35 -5,44 -7,15 -68,20 -85,25 -48,13 -57,48 -15,35 23,-7 64,-24 87,-19 3,8 -6,73 -11,78 -22,10 -66,0 -100,15 -44,20 -33,42 -55,60l-136 -1 174 -117 -8 -22c-37,-1 -109,72 -144,84zm-1188 -174c10,-6 43,-10 48,2 4,9 1,47 -1,59 -9,-5 -18,-20 -27,-28 -9,-9 -22,-18 -20,-33zm933 -32c33,-8 41,43 9,50 -34,7 -42,-42 -9,-50zm-78 27c-2,10 -34,33 -42,44 -6,9 -28,53 -42,35 -12,-15 -5,-52 14,-65 19,-12 48,-17 70,-14zm382 -56c46,-12 51,54 10,64 -48,11 -51,-54 -10,-64zm-1458 65c-5,-2 -14,-13 -17,-17 -7,-12 29,-48 43,-53l19 25 -45 45zm1215 -87c25,-9 35,31 13,39 -24,8 -41,-29 -13,-39zm-1411 62c14,50 45,98 49,116 -45,0 -97,-132 -103,-171 58,16 39,2 54,55zm337 -53c11,-12 50,-28 67,-28l33 50c-9,7 -17,10 -26,15 -10,6 -14,12 -21,19 -10,-4 -49,-45 -53,-56zm-231 -7c12,13 60,93 60,107 -31,10 -48,-4 -60,-32 -6,-16 -20,-58 -19,-75l19 0zm157 -26c16,10 145,154 171,181 29,29 39,33 29,80l-224 -240 24 -21zm-387 123l121 84c-36,5 -88,-13 -122,-23 -43,-12 -85,-9 -124,-19 -8,-11 -13,-61 -12,-77l83 15c-5,-19 -16,-73 -34,-80 -23,2 -10,26 -11,42l-40 -9 0 -119c20,-7 64,3 84,11 21,9 42,25 57,42 19,22 66,103 63,131 -41,0 -45,-45 -63,-72 -12,-17 -53,-60 -76,-59 -13,39 76,58 74,133zm414 -139c10,-12 26,-22 42,-29 10,-5 15,-10 24,-1 4,3 15,15 18,19l-64 32 -20 -21zm-10 -79c26,-10 37,29 15,37 -27,11 -37,-28 -15,-37zm-522 -54c37,-13 48,42 19,49 -35,8 -52,-38 -19,-49zm567 30c18,-11 78,36 92,50 26,27 53,56 45,98 -11,-4 -51,-65 -64,-79 -19,-21 -51,-52 -73,-69zm1534 9c-5,27 4,46 -4,76 -16,52 -86,114 -127,122l15 -47c11,-23 27,-29 40,-49 25,-38 30,-86 59,-119 14,-16 41,-29 63,-25l1 12 3 186 -88 23c8,-22 43,-38 55,-79 6,-19 24,-107 -1,-111l-16 11zm-2026 -48l16 -56c20,-75 141,-100 206,-82 36,11 67,30 94,55 22,20 53,64 54,95 17,17 9,88 6,111l-15 25 -31 -22 -1 1 -13 29 -35 -2c-25,-82 -84,-37 -80,5 4,47 36,110 59,151 15,25 71,113 75,135 -12,-9 -21,-21 -31,-32 -13,-13 -21,-16 -36,-25 -20,-13 -36,-55 -46,-77 -15,-30 -26,-58 -33,-90 -5,-23 -11,-90 2,-108l14 -22c17,-2 42,7 50,-15 6,-17 -4,-34 -22,-38 -41,-9 -49,42 -71,54 -18,-17 -21,-47 -52,-54 -35,-8 -51,23 -26,53l35 -3c15,15 28,35 28,57l-39 -5c-9,-9 -13,-30 -23,-41 -13,-13 -34,-11 -52,-14 -33,-6 -48,-68 -33,-85zm1490 28c9,4 39,40 46,38 19,-3 120,-101 163,-93 25,71 -61,100 -127,147 -34,24 -136,101 -173,103l100 -127c-7,-8 -12,-14 -22,-19l-118 144c8,-40 93,-184 131,-193zm496 -22l-60 117c-11,-13 -12,-72 -34,-81 -22,5 -9,40 -6,55 5,18 12,43 13,61 -17,13 -50,12 -71,14 -34,4 -45,25 -57,26 -1,-19 6,-79 -10,-88 -27,-2 -5,40 -37,62 -12,9 -47,41 -57,43l3 -39c4,-47 9,-69 35,-108 19,-26 43,-55 72,-71 30,-17 78,-31 113,-29 12,0 112,17 96,38zm-1585 -82c35,-16 55,42 23,56 -35,14 -57,-41 -23,-56zm1631 0c30,-8 41,42 10,48 -35,6 -43,-40 -10,-48zm-2085 -4c24,-6 33,31 11,37 -25,7 -36,-30 -11,-37zm1773 2c22,-10 58,-36 82,-35 7,13 15,41 14,56l-82 36c-8,-11 -14,-43 -14,-57zm272 -52c19,-9 34,21 15,29 -24,11 -32,-21 -15,-29zm-1631 -10c22,-9 31,25 12,32 -23,8 -32,-23 -12,-32zm-385 -2c31,-13 38,33 14,40 -29,9 -41,-28 -14,-40zm1793 -62c19,-2 21,25 23,39 4,20 -14,22 -31,29 -14,5 -74,34 -78,47 -5,21 21,14 -18,38l-117 71c-11,6 -31,-9 -22,-27 36,-69 170,-185 243,-197zm-1473 25c15,18 3,35 -14,26 -14,-8 -11,-28 14,-26zm-114 -33c26,-6 34,31 9,37 -32,6 -34,-32 -9,-37zm444 122c-20,3 -37,-34 -47,-49 -7,-9 -39,-51 -40,-58 19,0 48,23 60,36 17,19 31,45 27,71zm730 25c-7,-52 44,-124 95,-135 -2,11 -35,54 -43,71 -8,17 -48,62 -52,64zm-723 73l-2 87c-8,-3 -43,-43 -53,-51 -20,-17 -40,-28 -61,-42 -26,-17 -34,-29 -44,-58 -9,-24 -18,-57 -23,-82 -10,-16 -51,-35 -63,-49l-62 -23c96,-28 288,124 308,218zm1260 -238l35 166 -75 3 -14 -54 52 -16 -7 -28 -56 10 -14 -66 79 -15zm-337 77c-5,43 -4,59 -31,96 -15,22 -41,44 -63,62 -38,30 -93,125 -110,139l0 -120c3,-59 76,-125 119,-160 51,-40 130,-88 197,-76l-112 59zm-1409 -79c0,13 -15,36 -22,49 -12,28 -71,16 -28,-56 9,-14 40,0 50,7zm1355 -46c39,-13 52,45 19,55 -38,12 -54,-43 -19,-55zm-147 113c-3,-20 22,-109 35,-131 10,-17 58,10 46,49 -5,18 -35,35 -55,54 -5,5 -25,27 -26,28zm563 -109c25,-1 48,11 59,34 19,42 32,32 42,51 -56,6 -100,-28 -101,-85zm-1954 84c7,-14 29,-18 42,-49 7,-16 5,-17 22,-24 13,-6 22,-10 37,-10 -5,57 -41,91 -101,83zm1640 -119c36,-17 64,43 27,60 -38,18 -64,-42 -27,-60zm-974 134c-7,1 -49,-39 -59,-46 -54,-34 -153,-9 -187,-29 -28,-16 -18,-53 5,-69 49,-36 116,-23 163,9 21,14 39,33 53,55 11,16 30,61 25,80zm778 1103c-256,0 -513,-2 -769,-3 -80,-1 -69,12 -69,-71 -1,-28 9,-30 38,-31 41,-2 75,-2 109,-31 58,-50 44,-167 44,-237 0,-93 0,-187 0,-280 0,-93 -1,-187 1,-280 1,-62 11,-199 -30,-247 -28,-32 -79,-36 -63,-72 12,-26 98,-14 124,-14 92,-2 185,-3 277,-3l207 4c23,0 38,12 31,37 -8,31 -50,19 -73,69 -17,36 -15,85 -15,124 4,232 2,468 2,700 0,38 -4,100 5,136 8,33 32,62 61,79 43,24 78,7 120,19l0 101zm454 -1309c11,-64 97,-37 94,17 14,16 -16,63 -57,56 -25,-5 -56,-51 -37,-73zm-1835 30c-7,-80 96,-88 96,-26 20,17 -10,58 -30,66 -30,12 -63,-8 -66,-40zm1537 23c-11,-7 -46,-59 -98,-12 -20,18 -21,19 -48,5 -13,-6 -15,-5 -9,-20 3,-6 9,-16 15,-21 71,-72 183,-24 187,30l-47 18zm-1009 -52c22,-8 38,32 14,37 -25,5 -42,-28 -14,-37zm1061 -55c5,-48 62,-72 105,-57 27,10 78,52 87,79 33,24 44,122 1,148 -14,-13 -60,-107 -72,-110l-13 24c1,14 50,76 48,104 -34,11 -59,0 -81,-24 -16,-17 -35,-47 -41,-71 -13,-15 -47,-74 -34,-93zm-1271 78c-14,58 -68,127 -136,112 -2,-16 43,-65 11,-70 -19,-3 -30,45 -47,55 -12,-12 -32,-63 -24,-78 -4,-18 9,-62 25,-72l2 -2c8,-29 61,-73 89,-81 43,-12 101,7 105,57 8,17 -10,72 -25,79zm76 -96c2,-28 71,-26 77,10 25,22 -7,70 -46,63 -34,-5 -56,-47 -31,-73zm918 -25c11,-22 53,-28 69,-4 33,21 14,78 -28,82 -47,4 -71,-58 -41,-78zm-795 -29c5,-40 61,-53 90,-20 37,25 14,83 -26,91 -49,10 -90,-48 -64,-71zm1041 -3c19,-7 25,30 3,34 -19,3 -31,-25 -3,-34zm-869 -5c18,-6 24,20 10,24 -15,5 -27,-17 -10,-24zm545 -1c15,-6 24,15 11,23 -15,9 -28,-16 -11,-23zm-916 -36c22,-9 33,27 11,34 -22,6 -34,-25 -11,-34zm1308 1c20,-8 30,22 12,28 -22,6 -32,-19 -12,-28zm-348 -13c21,-9 31,21 13,28 -17,7 -34,-17 -13,-28zm349 -27c3,-56 36,-21 57,-28 16,-5 11,-13 35,-8 57,11 51,89 102,129l43 42c-26,22 -29,-36 -59,-13l19 31 -13 8c-9,-4 -68,-71 -87,-86 -15,-12 -32,-26 -46,-39 -15,-14 -46,-22 -51,-36zm-281 -19c26,-10 27,21 15,26 -19,8 -32,-20 -15,-26zm-937 -6c0,16 -17,37 1,50 15,10 35,10 42,-9 4,-8 3,-20 12,-22 20,-3 41,23 9,55 -25,25 -67,25 -91,-2 -21,-24 -25,-74 7,-89l20 17zm140 -37c11,-26 62,-22 63,10 23,11 -5,53 -37,51 -30,-1 -47,-40 -26,-61zm-121 0c2,-46 91,-12 63,23 -13,-1 -17,-10 -28,-15 -11,-4 -24,-3 -35,-8zm-332 164c10,-9 24,-16 33,-27 8,-10 14,-30 19,-42 13,-32 28,-45 53,-66 22,-19 35,-44 58,-62 27,-24 63,-19 73,18 13,48 -123,143 -159,178 -10,10 -50,57 -54,60l-13 -7c4,-11 16,-22 17,-32 -40,-21 -19,32 -61,13 1,-4 29,-30 34,-33zm1299 -190c37,-10 59,32 19,40 -34,6 -61,-29 -19,-40zm-15 129c6,-5 130,-73 154,-86 10,-5 43,-27 52,-24 1,6 -109,206 -117,209l-6 -93 -83 -6zm251 -156c28,-11 41,37 11,44 -24,5 -47,-29 -11,-44zm-682 -223c280,-24 334,417 31,445 -278,26 -338,-418 -31,-445zm565 199c26,-8 35,36 8,40 -26,4 -39,-31 -8,-40zm-1120 -7c26,-6 37,37 7,45 -27,6 -42,-36 -7,-45zm1176 -13c16,-13 25,0 14,14 -8,1 -7,0 -14,-3l0 -11zm-926 -139c-3,43 -38,152 -82,167 -67,23 -159,-49 -162,-76l244 -91zm866 104c-16,43 -104,80 -149,63 -41,-17 -66,-109 -72,-149l-4 -15c21,2 226,80 237,92l-12 9z" />
    <path fill="#FEFEF0"
        d="M1675 2030l0 -101c-42,-12 -77,5 -120,-19 -29,-17 -53,-46 -61,-79 -9,-36 -5,-98 -5,-136 0,-232 2,-468 -2,-700 0,-39 -2,-88 15,-124 23,-50 65,-38 73,-69 7,-25 -8,-37 -31,-37l-207 -4c-92,0 -185,1 -277,3 -26,0 -112,-12 -124,14 -16,36 35,40 63,72 41,48 31,185 30,247 -2,93 -1,187 -1,280 0,93 0,187 0,280 0,70 14,187 -44,237 -34,29 -68,29 -109,31 -29,1 -39,3 -38,31 0,83 -11,70 69,71 256,1 513,3 769,3z" />
    <path fill="#FEFEF0" d="M1243 173c-307,27 -247,471 31,445 303,-28 249,-469 -31,-445z" />
    <path fill="#FC5B33"
        d="M1850 2067c26,-9 39,29 15,39 -28,10 -42,-29 -15,-39zm-155 49l-105 57 1 31c26,3 83,-43 103,-30 17,24 -34,41 -49,47 -14,5 -70,17 -55,41 19,11 136,-46 161,-58 104,-51 177,-108 259,-189 18,-18 36,-39 54,-57 9,-10 59,-57 32,-66 -6,10 -42,14 -57,21 -14,6 -32,22 -47,31 -28,19 -19,73 -65,93 -21,9 -46,4 -68,10 -29,9 -24,20 -43,36 -24,19 -37,9 -63,16 -19,5 -37,24 -58,17z" />
    <path fill="#0688E6"
        d="M412 1094l38 1 -1 38c-13,5 -22,5 -37,2l0 -41zm-145 8c-15,17 0,79 33,85 18,3 39,1 52,14 10,11 14,32 23,41l39 5c0,-22 -13,-42 -28,-57l-35 3c-25,-30 -9,-61 26,-53 31,7 34,37 52,54 22,-12 30,-63 71,-54 18,4 28,21 22,38 -8,22 -33,13 -50,15l-14 22 7 0 3 46c-4,-42 55,-87 80,-5l35 2 13 -29 1 -1 31 22 15 -25c-12,-3 -14,-12 -22,-18 -11,-7 -23,-4 -35,-4 -32,-2 -7,-32 -8,-49 -2,-31 -48,-68 -74,-81 -56,-28 -136,-27 -190,3 -29,16 -34,27 -45,34l-2 -8z" />
    <path fill="#0686D8"
        d="M636 2067c22,-9 39,30 15,38 -26,8 -41,-27 -15,-38zm-226 -162c16,40 168,184 209,214 36,28 246,149 282,142 27,-47 -129,-51 -93,-91l95 32 0 -31 -87 -52c-1,29 -64,-19 -79,-22 -21,-5 -30,4 -50,-11 -13,-10 -18,-21 -31,-30 -33,-23 -63,-4 -89,-32 -10,-10 -43,-71 -36,-81l-16 -19c-9,4 -37,-11 -48,-14 -17,-5 -39,-7 -57,-5z" />
    <path fill="#FC714B"
        d="M2039 1541c35,-12 107,-85 144,-84l8 22 -174 117 136 1c22,-18 11,-40 55,-60 34,-15 78,-5 100,-15 5,-5 14,-70 11,-78 -23,-5 -64,12 -87,19 -42,13 -33,-22 15,-35 17,-5 78,-10 85,-25 3,-9 10,-36 5,-44 -7,-11 -34,-5 -45,-3 -54,10 -106,38 -149,70 -32,23 -91,79 -104,115z" />
    <path fill="#58D6EB"
        d="M1930 1786c3,-15 38,-62 51,-69 7,2 13,7 17,14 -5,14 -39,58 -51,66 -6,-2 -13,-6 -17,-11zm-13 70c19,15 19,17 41,-1 10,-8 25,-23 35,-32 19,-18 43,-55 69,-64l66 -129c-35,-8 -95,4 -128,19 -87,41 -53,102 -172,206 -17,14 -28,28 -28,50 53,-5 87,-75 100,-75 14,4 22,10 17,26z" />
    <path fill="#FC532B"
        d="M596 1786c-4,9 -14,11 -23,13l6 -10c-5,-5 -14,-8 -21,-11 -14,-7 -8,-7 -17,-17l-5 6c-34,-29 -73,-70 -100,-105 -17,-21 -25,-42 -33,-68 -4,-13 -7,-26 -12,-39 -6,-19 -15,-19 -20,-30l-66 -43 3 -5 -27 -6c1,14 71,115 83,140 26,50 51,96 82,144 37,60 144,222 210,240 -13,-35 -91,-78 -72,-147 3,-10 6,-19 10,-28 9,-21 3,-16 2,-34z" />
    <path fill="#FD643B"
        d="M1757 1130c-38,9 -123,153 -131,193l118 -144c10,5 15,11 22,19l-100 127c37,-2 139,-79 173,-103 66,-47 152,-76 127,-147 -43,-8 -144,90 -163,93 -7,2 -37,-34 -46,-38z" />
    <path fill="#77D7E8"
        d="M1937 1278l-3 39c10,-2 45,-34 57,-43 32,-22 10,-64 37,-62 16,9 9,69 10,88 12,-1 23,-22 57,-26 21,-2 54,-1 71,-14 -1,-18 -8,-43 -13,-61 -3,-15 -16,-50 6,-55 22,9 23,68 34,81l60 -117c-88,6 -114,-1 -190,52 -31,22 -31,11 -67,54 -24,30 -12,25 -43,48 -7,5 -10,10 -16,16z" />
    <path fill="#FD6A4A"
        d="M1808 1732c25,-12 25,25 11,30 -18,7 -31,-21 -11,-30zm46 -97c9,-10 36,7 19,22 -17,15 -31,-9 -19,-22zm-122 153c2,1 2,2 6,-4 2,-2 4,-5 6,-8 23,0 41,1 63,-3 29,-6 22,-15 34,-35 6,3 10,4 13,-1 -4,-6 -10,-17 1,-22 11,-5 16,2 20,10 5,7 -1,5 6,8 14,-76 12,-170 -61,-214 -37,-23 -100,-18 -73,31 9,15 26,21 35,37 15,26 2,37 1,62 15,11 24,15 34,31 10,16 9,39 -14,39 -9,-13 -9,-28 -23,-36 -14,-8 -33,-6 -43,6 -23,27 10,61 -5,99z" />
    <path fill="#EAF4E9"
        d="M283 1046c16,-1 29,-10 45,-11 20,0 30,4 54,2 82,-7 111,-3 182,39 12,7 26,12 38,19 14,7 23,18 32,23l3 -4c-1,-31 -32,-75 -54,-95 -27,-25 -58,-44 -94,-55 -65,-18 -186,7 -206,82z" />
    <path fill="#EAF4E9"
        d="M897 927c5,-19 -14,-64 -25,-80 -14,-22 -32,-41 -53,-55 -47,-32 -114,-45 -163,-9 -23,16 -33,53 -5,69 34,20 133,-5 187,29 10,7 52,47 59,46z" />
    <path fill="#F86749"
        d="M540 1685c-32,4 -18,-46 6,-14l-6 14zm56 101l8 -59c-11,-7 -57,-26 -48,-41 13,-12 48,26 58,33l17 -14c-21,-6 -111,-72 -132,-88 -25,-19 -104,-84 -128,-92 5,11 14,11 20,30 5,13 8,26 12,39 8,26 16,47 33,68 27,35 66,76 100,105l5 -6c9,10 3,10 17,17 7,3 16,6 21,11l-6 10c9,-2 19,-4 23,-13z" />
    <path fill="#FD6543"
        d="M2036 898c-73,12 -207,128 -243,197 -9,18 11,33 22,27l117 -71c39,-24 13,-17 18,-38 4,-13 64,-42 78,-47 17,-7 35,-9 31,-29 -2,-14 -4,-41 -23,-39z" />
    <path fill="#77D7E8"
        d="M903 250c20,21 4,30 -15,46 -10,9 -35,34 -48,29 -29,-13 5,-32 17,-42 14,-11 26,-31 46,-33zm-209 54c3,27 95,99 162,76 44,-15 79,-124 82,-167l-244 91z" />
    <path fill="#1598E8"
        d="M1907 648l-23 27 -1 -8c-13,19 21,78 34,93l39 1 6 -21 23 30c5,-10 1,-12 6,-19l13 -24c12,3 58,97 72,110 43,-26 32,-124 -1,-148 -8,9 -26,11 -37,11 -19,-9 -12,-16 -41,-8 -1,12 8,12 1,19l-5 -9c-2,12 -10,15 -19,21 -10,-13 -16,-23 -24,-37 -13,-23 -19,-18 -6,-43l-3 -6 -34 11z" />
    <path fill="#FD6543"
        d="M189 1242c15,-12 34,14 15,26 -15,10 -33,-12 -15,-26zm67 121l54 20c2,-75 -87,-94 -74,-133 23,-1 64,42 76,59 18,27 22,72 63,72 3,-28 -44,-109 -63,-131 -15,-17 -36,-33 -57,-42 -20,-8 -64,-18 -84,-11l0 119 40 9c1,-16 -12,-40 11,-42 18,7 29,61 34,80z" />
    <path fill="#F5FBF3"
        d="M1937 1278c6,-6 9,-11 16,-16 31,-23 19,-18 43,-48 36,-43 36,-32 67,-54 76,-53 102,-46 190,-52 16,-21 -84,-38 -96,-38 -35,-2 -83,12 -113,29 -29,16 -53,45 -72,71 -26,39 -31,61 -35,108z" />
    <path fill="#0281D9"
        d="M1619 1126l0 120c17,-14 72,-109 110,-139 22,-18 48,-40 63,-62 27,-37 26,-53 31,-96l-204 177z" />
    <path fill="#58D6EB"
        d="M283 1046l-16 56 2 8c11,-7 16,-18 45,-34 54,-30 134,-31 190,-3 26,13 72,50 74,81 1,17 -24,47 8,49 12,0 24,-3 35,4 8,6 10,15 22,18 3,-23 11,-94 -6,-111l-3 4c-9,-5 -18,-16 -32,-23 -12,-7 -26,-12 -38,-19 -71,-42 -100,-46 -182,-39 -24,2 -34,-2 -54,-2 -16,1 -29,10 -45,11z" />
    <path fill="#FD643B"
        d="M1613 250c13,-3 33,24 44,32 11,10 42,29 16,41 -16,8 -37,-19 -48,-28 -10,-8 -40,-37 -12,-45zm191 67c-27,-2 -83,-31 -110,-42 -30,-12 -82,-38 -111,-44 6,40 31,132 72,149 45,17 133,-20 149,-63z" />
    <path fill="#0686D8"
        d="M504 750c15,-7 28,24 7,27 -18,1 -26,-19 -7,-27zm-88 14c-8,15 12,66 24,78 17,-10 28,-58 47,-55 32,5 -13,54 -11,70 68,15 122,-54 136,-112 -14,4 -7,1 -17,-3l-7 11c-18,-12 -8,0 -22,1 -13,1 -14,-9 -14,-19 -5,8 -6,10 -14,14l-7 -13 10 -4 -23 -6 0 -8c-5,6 2,11 -2,28 -21,-1 -32,-4 -54,-3 -1,5 0,18 -9,11 -5,-4 -2,-11 -1,-15l-6 8 -6 -10 -4 14c-8,-7 0,-6 -12,-10l-7 41 -1 -18z" />
    <path fill="#0686D8"
        d="M1917 1856c-6,2 -52,47 -62,56 -17,15 -18,12 -22,37 -4,16 -8,35 -10,51 65,-18 102,-47 144,-97 26,-31 84,-107 95,-144 -26,9 -50,46 -69,64 -10,9 -25,24 -35,32 -22,18 -22,16 -41,1z" />
    <path fill="#66D5E8"
        d="M506 539c-3,10 -18,29 -30,18 -13,-13 5,-29 19,-31l11 13zm-4 -28c4,-13 32,-34 42,-44 8,-9 38,-46 50,-27 10,14 -22,39 -32,48 -9,8 -38,35 -46,40l-14 -17zm-112 102c-5,3 -33,29 -34,33 42,19 21,-34 61,-13 -1,10 -13,21 -17,32l13 7c4,-3 44,-50 54,-60 36,-35 172,-130 159,-178 -46,-9 -39,-27 -79,10 -19,18 -37,39 -56,55 -29,25 -31,34 -41,70 -6,20 -44,66 -60,44z" />
    <path fill="#0696E8"
        d="M310 1383l-54 -20 -83 -15c-1,16 4,66 12,77 39,10 81,7 124,19 34,10 86,28 122,23l-121 -84z" />
    <path fill="#8FE7F0" d="M1619 1126l204 -177 112 -59c-67,-12 -146,36 -197,76 -43,35 -116,101 -119,160z" />
    <path fill="#0686D8"
        d="M900 1110l-12 -8c-13,-5 -5,-6 -19,-7 -13,0 -6,-3 -22,-1 -22,-25 -105,-122 -130,-130 5,25 14,58 23,82 10,29 18,41 44,58 21,14 41,25 61,42 10,8 45,48 53,51l2 -87z" />
    <path fill="#F97556" d="M1674 552l83 6 6 93c8,-3 118,-203 117,-209 -9,-3 -42,19 -52,24 -24,13 -148,81 -154,86z" />
    <path fill="#F8F8E9"
        d="M1831 774l47 -18c-4,-54 -116,-102 -187,-30 -6,5 -12,15 -15,21 -6,15 -4,14 9,20 27,14 28,13 48,-5 52,-47 87,5 98,12z" />
    <polygon fill="#FD643B" points="2081,887 2095,953 2151,943 2158,971 2106,987 2120,1041 2195,1038 2160,872 " />
    <path fill="#FB5736"
        d="M723 2014c1,-23 -5,-47 -3,-71 1,-19 15,-50 13,-62l-35 -16c-22,15 -20,55 -34,63 -21,2 -20,-25 -13,-39 4,-11 20,-32 22,-40l-41 -31c-16,12 -23,42 -20,61 3,18 15,40 28,53 19,21 61,69 83,82z" />
    <path fill="#1598E8"
        d="M1958 1387c0,-17 9,-22 25,-20 17,23 0,42 -25,20zm-42 217c16,-6 49,-109 54,-134 3,-13 5,-41 10,-52 11,-3 9,5 22,-6 36,-33 -4,-107 -47,-71 -31,26 -3,85 -27,166 -6,22 -37,82 -12,97z" />
    <path fill="#66D5E8"
        d="M1620 1764c4,-2 20,-30 38,-41 6,-3 29,-11 30,-12 1,-1 10,-23 13,-27 18,-33 81,-45 42,-94 -55,-71 -129,140 -123,174z" />
    <path fill="#FDFDFD"
        d="M1272 2216c-9,-6 -17,-28 -26,-38 -16,-17 -33,-13 -36,11 -2,20 -2,43 -2,63 0,15 -2,51 23,40 14,-10 6,-53 9,-70l32 43 30 -43c4,15 -6,69 15,72 26,3 19,-52 18,-67 0,-16 4,-65 -24,-59 -13,3 -32,36 -39,48z" />
    <path fill="#65DAF5"
        d="M2035 567c-12,-4 -71,-55 -34,-63 23,-4 20,16 33,29 13,13 24,20 1,34zm-114 -56c5,14 36,22 51,36 14,13 31,27 46,39 19,15 78,82 87,86l13 -8 -19 -31c30,-23 33,35 59,13l-43 -42c-2,15 -20,8 -27,0 -22,-23 -26,-62 -45,-89 -12,-17 -34,-38 -57,-24 -15,10 -6,15 -31,13 -27,-3 -15,1 -34,7z" />
    <path fill="#F86749" d="M673 1281l224 240c10,-47 0,-51 -29,-80 -26,-27 -155,-171 -171,-181l-24 21z" />
    <path fill="#FDFDFD"
        d="M982 2225c21,11 42,78 73,65 4,-7 8,-113 5,-118l-24 -1c-8,18 -2,45 -5,64 -4,-3 -29,-41 -40,-52 -8,-8 -20,-16 -32,-11 -10,4 -8,28 -9,37 -1,15 -4,74 8,82 32,21 22,-55 24,-66z" />
    <path fill="#53C8DB"
        d="M468 1261l-3 -46 -7 0c-13,18 -7,85 -2,108 7,32 18,60 33,90 10,22 26,64 46,77 15,9 23,12 36,25 10,11 19,23 31,32 -4,-22 -60,-110 -75,-135 -23,-41 -55,-104 -59,-151z" />
    <path fill="#0696E8"
        d="M253 1593c21,-10 33,21 16,28 -20,8 -36,-17 -16,-28zm69 7l-1 7c-5,0 -23,-15 -29,-19 -12,-8 -19,-22 -2,-29 -45,-36 -103,31 -63,84 42,56 126,4 95,-43z" />
    <path fill="#F8F8E9"
        d="M1695 2116c21,7 39,-12 58,-17 26,-7 39,3 63,-16 19,-16 14,-27 43,-36 22,-6 47,-1 68,-10 46,-20 37,-74 65,-93 15,-9 33,-25 47,-31 15,-7 51,-11 57,-21 -26,-6 -40,-11 -66,1 -27,13 -22,30 -38,42 -23,19 -24,16 -37,43 -38,75 -52,24 -107,50 -20,9 -26,25 -41,39 -22,19 -95,6 -112,49z" />
    <path fill="#58C9E6"
        d="M741 1652c3,-34 -38,-80 -27,-100 28,-11 55,87 60,108l41 5c-10,-29 -93,-167 -119,-172 -21,23 -7,159 45,159z" />
    <path fill="#85D9E7"
        d="M1681 1458c0,18 -1,36 -2,54 0,13 -9,37 1,48 46,-19 21,-23 37,-53 14,-26 36,-23 54,-38l-38 -75c-24,7 -45,42 -52,64z" />
    <path fill="#FDFDFD"
        d="M1407 2238c0,-7 8,-23 13,-28l11 29 -24 -1zm36 29c3,7 6,16 10,22 7,7 20,5 21,-4 4,-21 -38,-156 -73,-103 -8,13 -38,81 -40,94 -1,9 2,23 13,19 12,-4 17,-46 69,-28z" />
    <path fill="#0281D9"
        d="M660 1790c3,12 13,18 22,25 12,8 17,17 31,6 8,-7 18,-21 28,-7 10,13 -6,17 -10,30 24,22 33,3 53,-8 17,-10 55,-16 62,-22 -15,-22 -54,-32 -81,-35 -44,-5 -66,1 -105,11z" />
    <path fill="#1598E8"
        d="M562 647c26,5 13,26 4,42 -7,14 -20,31 -25,43l-10 4 7 13c8,-4 9,-6 14,-14 0,10 1,20 14,19 14,-1 4,-13 22,-1l7 -11c10,4 3,7 17,3 15,-7 33,-62 25,-79l-3 6c-13,-12 -27,-38 -51,-39 -13,-1 -18,0 -21,14z" />
    <path fill="#057AD6"
        d="M1917 760c6,24 25,54 41,71 22,24 47,35 81,24 2,-28 -47,-90 -48,-104 -5,7 -1,9 -6,19l-23 -30 -6 21 -39 -1z" />
    <path fill="#FC5B33"
        d="M811 595c-26,23 15,81 64,71 40,-8 63,-66 26,-91 0,7 -11,8 -18,10 -27,5 -40,7 -69,15l-3 -5z" />
    <path fill="#FD4D2A"
        d="M1854 1737c-3,5 -7,4 -13,1 -12,20 -5,29 -34,35 -22,4 -40,3 -63,3 -2,3 -4,6 -6,8 -4,6 -4,5 -6,4 -7,13 -17,20 -27,28 10,9 44,13 58,14 58,1 100,-45 118,-97 -7,-3 -1,-1 -6,-8 1,14 -9,18 -21,12z" />
    <path fill="#FC5B33"
        d="M2135 1708c-36,18 -25,100 38,90 54,-9 55,-81 14,-95 -5,11 -10,17 -24,19 -12,3 -24,-1 -28,-14z" />
    <path fill="#F9F9F1"
        d="M371 1525c24,8 103,73 128,92 21,16 111,82 132,88l13 -8c-46,-40 -113,-78 -164,-115 -53,-39 -104,-90 -172,-105l-3 5 66 43z" />
    <path fill="#FDFDFD"
        d="M1120 2245c11,-1 71,4 52,-23 -12,-17 -65,11 -53,-23 8,-3 34,-2 46,-4 14,-2 33,-12 12,-23 -10,-6 -35,-5 -47,-5 -11,0 -37,-2 -40,11 -4,20 -12,145 23,111 11,-11 1,-31 7,-44z" />
    <path fill="#2798E8" d="M1833 1395c-27,6 -51,51 -2,87 15,12 15,13 33,13 17,0 25,16 27,-12 2,-37 -15,-99 -58,-88z" />
    <path fill="#4BCAEF"
        d="M717 964c25,8 108,105 130,130 16,-2 9,1 22,1 14,1 6,2 19,7 -9,-28 -72,-94 -97,-113 -30,-24 -100,-67 -137,-74 12,14 53,33 63,49z" />
    <path fill="#E9FAF9"
        d="M816 2119c-25,-17 -42,-36 -74,-41 -60,-10 -36,3 -77,-39 -31,-33 -66,-11 -87,-28 -17,-14 -24,-60 -47,-68 -7,10 26,71 36,81 26,28 56,9 89,32 13,9 18,20 31,30 20,15 29,6 50,11 15,3 78,51 79,22z" />
    <path fill="#F4F2EB"
        d="M703 486l-20 -17c-32,15 -28,65 -7,89 24,27 66,27 91,2 32,-32 11,-58 -9,-55 -9,2 -8,14 -12,22 -7,19 -27,19 -42,9 -18,-13 -1,-34 -1,-50z" />
    <path fill="#66D5E8"
        d="M2177 1301l-15 47c41,-8 111,-70 127,-122 8,-30 -1,-49 4,-76 -39,25 -32,121 -113,157l-3 -6z" />
    <path fill="#50B4D2" d="M2309 1139c25,4 7,92 1,111 -12,41 -47,57 -55,79l88 -23 -3 -186 0 7 -31 12z" />
    <path fill="#F6FBFA" d="M654 915c37,7 107,50 137,74 25,19 88,85 97,113l12 8c-20,-94 -212,-246 -308,-218l62 23z" />
    <path fill="#8FE7F0" d="M598 1608c-9,-28 -34,-56 -55,-75 -25,-23 -63,-36 -98,-32 -1,22 110,107 153,107z" />
    <path fill="#0696E8" d="M578 1437l83 154c6,-21 -7,-144 -33,-165 -9,-7 -42,4 -50,11z" />
    <path fill="#2798E8"
        d="M2129 721c0,18 4,44 27,37l5 9 9 -10c17,4 11,11 27,0 12,-8 0,6 26,-7l0 -12c3,-54 -83,-81 -94,-17z" />
    <path fill="#16A7EA" d="M294 751c14,1 29,2 43,2 38,2 25,-2 38,8 17,-10 14,-18 15,-36 0,-62 -103,-54 -96,26z" />
    <path fill="#CFEDE9"
        d="M1622 937c1,-1 21,-23 26,-28 20,-19 50,-36 55,-54 12,-39 -36,-66 -46,-49 -13,22 -38,111 -35,131z" />
    <path fill="#FD6543" d="M1987 1024c0,14 6,46 14,57l82 -36c1,-15 -7,-43 -14,-56 -24,-1 -60,25 -82,35z" />
    <path fill="#0686D8" d="M483 1462c-4,-18 -35,-66 -49,-116 -15,-53 4,-39 -54,-55 6,39 58,171 103,171z" />
    <path fill="#ABDFDF"
        d="M2191 1651l6 -15c9,0 13,3 20,0 8,-4 0,-1 3,-11l12 5c-8,-34 18,-30 25,-15 13,10 21,2 24,22l6 -6c13,-40 -23,-74 -62,-66 -37,8 -59,57 -34,86z" />
    <path fill="#0696E8"
        d="M1641 649c19,-8 29,24 9,29 -21,6 -32,-19 -9,-29zm-35 -25c-30,20 -6,82 41,78 42,-4 61,-61 28,-82 -20,9 -52,26 -69,4z" />
    <path fill="#17A7F3"
        d="M441 692c-16,10 -29,54 -25,72l1 18 7 -41c12,4 4,3 12,10l4 -14 6 10 6 -8c-1,4 -4,11 1,15 9,7 8,-6 9,-11 22,-1 33,2 54,3 4,-17 -3,-22 2,-28l14 -29c-6,0 -9,-6 -24,-5 -8,1 -16,4 -22,8 -12,7 -38,16 -45,0z" />
    <path fill="#E9FAF9"
        d="M2177 1301l3 6c81,-36 74,-132 113,-157l16 -11 31 -12 0 -7 -1 -12c-22,-4 -49,9 -63,25 -29,33 -34,81 -59,119 -13,20 -29,26 -40,49z" />
    <path fill="#E9FAF9"
        d="M390 613c16,22 54,-24 60,-44 10,-36 12,-45 41,-70 19,-16 37,-37 56,-55 40,-37 33,-19 79,-10 -10,-37 -46,-42 -73,-18 -23,18 -36,43 -58,62 -25,21 -40,34 -53,66 -5,12 -11,32 -19,42 -9,11 -23,18 -33,27z" />
    <path fill="#2AB2EF"
        d="M624 1772c15,-1 39,-17 56,-21 25,-6 49,-3 71,-8 -1,-4 -14,-44 -16,-46 -14,-15 -111,31 -111,75z" />
    <path fill="#F87865"
        d="M771 1293c4,11 43,52 53,56 7,-7 11,-13 21,-19 9,-5 17,-8 26,-15l-33 -50c-17,0 -56,16 -67,28z" />
    <path fill="#F86749" d="M752 1459c11,19 117,106 141,112 -6,-19 -95,-121 -114,-134l-27 22z" />
    <path fill="#49D8F6"
        d="M1907 648l34 -11 3 6c19,3 19,11 28,25 7,11 15,23 21,34l5 9c7,-7 -2,-7 -1,-19 29,-8 22,-1 41,8 2,-11 4,-6 12,-13 -1,-18 -41,-49 -57,-56 -23,-10 -74,-3 -86,17z" />
    <path fill="#057AD6"
        d="M759 1141c22,17 54,48 73,69 13,14 53,75 64,79 8,-42 -19,-71 -45,-98 -14,-14 -74,-61 -92,-50z" />
    <path fill="#0C5491"
        d="M1680 1560c-10,-11 -1,-35 -1,-48 1,-18 2,-36 2,-54 -33,17 -59,119 -56,156 8,-11 16,-20 26,-28 6,-5 26,-22 29,-26z" />
    <path fill="#E9FAF9"
        d="M1883 667l1 8 23 -27c12,-20 63,-27 86,-17 16,7 56,38 57,56 -8,7 -10,2 -12,13 11,0 29,-2 37,-11 -9,-27 -60,-69 -87,-79 -43,-15 -100,9 -105,57z" />
    <path fill="#49D5EA"
        d="M443 690l-2 2c7,16 33,7 45,0 6,-4 14,-7 22,-8 15,-1 18,5 24,5 8,-6 16,-33 30,-42 3,-14 8,-15 21,-14 -6,-4 -27,-11 -36,-10 -12,0 -24,6 -34,13 -20,12 -33,28 -48,46l7 15c-8,-1 -26,-2 -29,-7z" />
    <path fill="#ABDFDF"
        d="M765 659l-1 9c-18,10 -25,10 -45,3 -12,-3 -33,-8 -31,-22 -25,26 -3,68 31,73 39,7 71,-41 46,-63z" />
    <path fill="#F9F9EB" d="M1583 231c29,6 81,32 111,44 27,11 83,40 110,42l12 -9c-11,-12 -216,-90 -237,-92l4 15z" />
    <path fill="#53C8DB" d="M897 1711c-1,-68 -51,-122 -106,-151 6,27 83,138 106,151z" />
    <path fill="#E9FAF9"
        d="M1921 511c19,-6 7,-10 34,-7 25,2 16,-3 31,-13 23,-14 45,7 57,24 19,27 23,66 45,89 7,8 25,15 27,0 -51,-40 -45,-118 -102,-129 -24,-5 -19,3 -35,8 -21,7 -54,-28 -57,28z" />
    <path fill="#0598F5" d="M600 1393c0,-14 -48,-94 -60,-107l-19 0c-1,17 13,59 19,75 12,28 29,42 60,32z" />
    <path fill="#E9FAF9"
        d="M443 690c3,5 21,6 29,7l-7 -15c15,-18 28,-34 48,-46 10,-7 22,-13 34,-13 9,-1 30,6 36,10 24,1 38,27 51,39l3 -6c-4,-50 -62,-69 -105,-57 -28,8 -81,52 -89,81z" />
    <path fill="#0696E8"
        d="M1992 1536c14,-9 39,-46 52,-61 11,-13 51,-45 55,-59 -49,-9 -40,-28 -71,32 -9,18 -34,69 -36,88z" />
    <path fill="#F9F9F1" d="M2286 913c-10,-19 -23,-9 -42,-51 -11,-23 -34,-35 -59,-34 1,57 45,91 101,85z" />
    <path fill="#77E5F6" d="M231 912c60,8 96,-26 101,-83 -15,0 -24,4 -37,10 -17,7 -15,8 -22,24 -13,31 -35,35 -42,49z" />
    <path fill="#FA683A" d="M674 1385l-16 17c8,14 31,41 43,49l49 -44 -38 -41c-3,13 -20,31 -36,27l-2 -8z" />
    <path fill="#0FA7DA" d="M1623 1037c4,-2 44,-47 52,-64 8,-17 41,-60 43,-71 -51,11 -102,83 -95,135z" />
    <path fill="#FDFDFD"
        d="M1518 2168c-16,5 -15,11 -15,26 0,13 0,26 1,40 0,16 -9,63 18,59 19,-3 12,-52 12,-66 0,-12 6,-65 -16,-59z" />
    <path fill="#0688E6"
        d="M1706 1362c-22,-3 -51,2 -70,14 -19,13 -26,50 -14,65 14,18 36,-26 42,-35 8,-11 40,-34 42,-44z" />
    <path fill="#0C6CB3" d="M414 870c-10,-7 -41,-21 -50,-7 -43,72 16,84 28,56 7,-13 22,-36 22,-49z" />
    <path fill="#FC5B33" d="M2088 1306c-41,10 -38,75 10,64 41,-10 36,-76 -10,-64z" />
    <path fill="#1598E8" d="M899 1815c19,-32 -34,-98 -60,-94 -1,12 -1,26 0,39 1,17 3,14 15,23 12,7 34,29 45,32z" />
    <path fill="#53C8DB"
        d="M2232 1630l-12 -5c-3,10 5,7 -3,11 -7,3 -11,0 -20,0l-6 15c20,39 82,27 96,-20l-6 6c-3,-20 -11,-12 -24,-22 1,17 -13,26 -25,15z" />
    <path fill="#F86749" d="M1871 793c-37,18 -11,78 27,60 37,-17 9,-77 -27,-60z" />
    <path fill="#85D9E7"
        d="M906 459c-4,1 -5,-6 -16,1 -5,4 -10,8 -16,9 -12,1 -28,-9 -31,-20 -21,21 -4,60 26,61 32,2 60,-40 37,-51z" />
    <path fill="#0686D8"
        d="M893 1012c4,-26 -10,-52 -27,-71 -12,-13 -41,-36 -60,-36 1,7 33,49 40,58 10,15 27,52 47,49z" />
    <path fill="#0B5AA7"
        d="M294 751c3,32 36,52 66,40 20,-8 50,-49 30,-66 -1,18 2,26 -15,36 -13,-10 0,-6 -38,-8 -14,0 -29,-1 -43,-2z" />
    <path fill="#020515"
        d="M502 511l14 17c8,-5 37,-32 46,-40 10,-9 42,-34 32,-48 -12,-19 -42,18 -50,27 -10,10 -38,31 -42,44z" />
    <path fill="#F9F9F1" d="M400 1793c13,-33 -38,-12 -89,-67 -6,-7 -18,-27 -26,-27 8,51 62,100 115,94z" />
    <path fill="#020515"
        d="M903 250c-20,2 -32,22 -46,33 -12,10 -46,29 -17,42 13,5 38,-20 48,-29 19,-16 35,-25 15,-46z" />
    <path fill="#0B030C"
        d="M1613 250c-28,8 2,37 12,45 11,9 32,36 48,28 26,-12 -5,-31 -16,-41 -11,-8 -31,-35 -44,-32z" />
    <path fill="#0B5AA7"
        d="M2223 738l0 12c-26,13 -14,-1 -26,7 -16,11 -10,4 -27,0l-9 10 -5 -9c-23,7 -27,-19 -27,-37 -19,22 12,68 37,73 41,7 71,-40 57,-56z" />
    <path fill="#F95829" d="M668 1026c-34,15 -12,70 23,56 32,-14 12,-72 -23,-56z" />
    <path fill="#F9F9F1" d="M688 649c-2,14 19,19 31,22 20,7 27,7 45,-3l1 -9c-6,-36 -75,-38 -77,-10z" />
    <path fill="#FA683A" d="M1769 824c-35,12 -19,67 19,55 33,-10 20,-68 -19,-55z" />
    <path fill="#FA683A" d="M1633 1816c21,0 95,-41 69,-67 -26,-25 -66,50 -69,67z" />
    <path fill="#ED8B69" d="M724 1244l20 21 64 -32c-3,-4 -14,-16 -18,-19 -9,-9 -14,-4 -24,1 -16,7 -32,17 -42,29z" />
    <path fill="#01021B" d="M532 689l-14 29 0 8 23 6c5,-12 18,-29 25,-43 9,-16 22,-37 -4,-42 -14,9 -22,36 -30,42z" />
    <path fill="#F8F8E9" d="M811 595l3 5c29,-8 42,-10 69,-15 7,-2 18,-3 18,-10 -29,-33 -85,-20 -90,20z" />
    <path fill="#020A1B" d="M1930 1786c4,5 11,9 17,11 12,-8 46,-52 51,-66 -4,-7 -10,-12 -17,-14 -13,7 -48,54 -51,69z" />
    <path fill="#EE8563" d="M630 1371l45 -45 -19 -25c-14,5 -50,41 -43,53 3,4 12,15 17,17z" />
    <path fill="#F86749" d="M192 1111c-33,11 -16,57 19,49 29,-7 18,-62 -19,-49z" />
    <path fill="#01021B"
        d="M1993 702c-6,-11 -14,-23 -21,-34 -9,-14 -9,-22 -28,-25 -13,25 -7,20 6,43 8,14 14,24 24,37 9,-6 17,-9 19,-21z" />
    <path fill="#53C8DB" d="M1784 1335c-33,8 -25,57 9,50 32,-7 24,-58 -9,-50z" />
    <path fill="#F87865" d="M851 1367c-2,15 11,24 20,33 9,8 18,23 27,28 2,-12 5,-50 1,-59 -5,-12 -38,-8 -48,-2z" />
    <path fill="#F95829" d="M1689 423c-42,11 -15,46 19,40 40,-8 18,-50 -19,-40z" />
    <path fill="#CEF5F5"
        d="M410 1905c18,-2 40,0 57,5 11,3 39,18 48,14 -6,-17 -25,-33 -42,-37 -23,-5 -47,4 -68,10l5 8z" />
    <path fill="#020515" d="M2035 567c23,-14 12,-21 -1,-34 -13,-13 -10,-33 -33,-29 -37,8 22,59 34,63z" />
    <path fill="#4CB8E8" d="M788 1752l21 0c3,-13 4,-38 1,-51 -13,-8 -30,-8 -45,-7l23 58z" />
    <path fill="#F86749" d="M2299 1026c-33,8 -25,54 10,48 31,-6 20,-56 -10,-48z" />
    <path fill="#F5FBF3" d="M722 449c11,5 24,4 35,8 11,5 15,14 28,15 28,-35 -61,-69 -63,-23z" />
    <path fill="#FB7346" d="M1925 396c-36,15 -13,49 11,44 30,-7 17,-55 -11,-44z" />
    <path fill="#F4F5F1" d="M688 365c-35,9 -20,51 7,45 30,-8 19,-51 -7,-45z" />
    <path fill="#F5FBF3" d="M843 449c3,11 19,21 31,20 6,-1 11,-5 16,-9 11,-7 12,0 16,-1 -1,-32 -52,-36 -63,-10z" />
    <path fill="#57D8F4" d="M198 1500c19,53 83,-18 23,-37 -2,18 -6,31 -23,37z" />
    <path fill="#010524" d="M412 1135c15,3 24,3 37,-2l1 -38 -38 -1 0 41z" />
    <path fill="#6AB7CD" d="M243 960c-27,12 -15,49 14,40 24,-7 17,-53 -14,-40z" />
    <path fill="#E9FAF9" d="M1606 624c17,22 49,5 69,-4 -16,-24 -58,-18 -69,4z" />
    <path fill="#EAF4E9" d="M1808 372c-31,9 -18,44 8,40 27,-4 18,-48 -8,-40z" />
    <path fill="#13020B" d="M1850 2067c-27,10 -13,49 15,39 24,-10 11,-48 -15,-39z" />
    <path fill="#E8E8DC" d="M2107 1819c-24,10 -11,50 17,38 25,-10 8,-48 -17,-38z" />
    <path fill="#F76A37" d="M390 1821c-25,10 -11,46 15,38 25,-8 10,-49 -15,-38z" />
    <path fill="#F86749" d="M1845 1284c-28,10 -11,47 13,39 22,-8 12,-48 -13,-39z" />
    <path fill="#010B23" d="M636 2067c-26,11 -11,46 15,38 24,-8 7,-47 -15,-38z" />
    <path fill="#F86749" d="M449 890c-25,5 -23,43 9,37 25,-6 17,-43 -9,-37z" />
    <path fill="#CFEDE9" d="M714 1165c-22,9 -12,48 15,37 22,-8 11,-47 -15,-37z" />
    <path fill="#F5AF91" d="M822 722c-28,9 -11,42 14,37 24,-5 8,-45 -14,-37z" />
    <path fill="#16A7EA" d="M214 1022c-25,7 -14,44 11,37 22,-6 13,-43 -11,-37z" />
    <path fill="#F97556" d="M612 550c-23,9 -11,40 11,34 22,-7 11,-43 -11,-34z" />
    <path fill="#F8F8E9" d="M2135 1708c4,13 16,17 28,14 14,-2 19,-8 24,-19 -14,-11 -40,-8 -52,5z" />
    <path fill="#E9FAF9" d="M322 1600c-3,-18 -16,-33 -32,-41 -17,7 -10,21 2,29 6,4 24,19 29,19l1 -7z" />
    <path fill="#68E5F7" d="M347 1697c-21,8 -12,40 13,33 21,-5 7,-40 -13,-33z" />
    <path fill="#16A7EA" d="M1852 592c-28,9 -16,37 3,34 22,-4 16,-41 -3,-34z" />
    <path fill="#16A7EA" d="M628 962c-20,9 -11,40 12,32 19,-7 10,-41 -12,-32z" />
    <path fill="#16A7EA" d="M2259 972c-17,8 -9,40 15,29 19,-8 4,-38 -15,-29z" />
    <path fill="#010B23" d="M253 1593c-20,11 -4,36 16,28 17,-7 5,-38 -16,-28z" />
    <path fill="#E9FAF9" d="M198 1500c17,-6 21,-19 23,-37l-32 3c-1,11 3,25 9,34z" />
    <path fill="#13020B" d="M1808 1732c-20,9 -7,37 11,30 14,-5 14,-42 -11,-30z" />
    <path fill="#010524" d="M1641 649c-23,10 -12,35 9,29 20,-5 10,-37 -9,-29z" />
    <path fill="#020515" d="M506 539l-11 -13c-14,2 -32,18 -19,31 12,11 27,-8 30,-18z" />
    <path fill="#32ADD3" d="M1572 538c-21,11 -4,35 13,28 18,-7 8,-37 -13,-28z" />
    <path fill="#F4F5F1" d="M1920 551c-20,9 -10,34 12,28 18,-6 8,-36 -12,-28z" />
    <path fill="#160813" d="M189 1242c-18,14 0,36 15,26 19,-12 0,-38 -15,-26z" />
    <path fill="#010B23" d="M1958 1387c25,22 42,3 25,-20 -16,-2 -25,3 -25,20z" />
    <path fill="#F8EFD9" d="M674 1385l2 8c16,4 33,-14 36,-27l-12 -8c-5,4 -23,22 -26,27z" />
    <path fill="#FB7346" d="M1640 492c-17,6 -4,34 15,26 12,-5 11,-36 -15,-26z" />
    <path fill="#13020B" d="M1854 1635c-12,13 2,37 19,22 17,-15 -10,-32 -19,-22z" />
    <path fill="#32ADD3" d="M563 923c-25,-2 -28,18 -14,26 17,9 29,-8 14,-26z" />
    <path fill="#020A1B" d="M2232 1630c12,11 26,2 25,-15 -7,-15 -33,-19 -25,15z" />
    <path fill="#010B23" d="M504 750c-19,8 -11,28 7,27 21,-3 8,-34 -7,-27z" />
    <path fill="#13020B" d="M1854 1737c12,6 22,2 21,-12 -4,-8 -9,-15 -20,-10 -11,5 -5,16 -1,22z" />
    <path fill="#F4F5F1" d="M983 587c-17,7 -5,29 10,24 14,-4 8,-30 -10,-24z" />
    <path fill="#EC7261" d="M1528 586c-17,7 -4,32 11,23 13,-8 4,-29 -11,-23z" />
    <path fill="#13020B" d="M540 1685l6 -14c-24,-32 -38,18 -6,14z" />
    <path fill="#02010E" d="M1407 2238l24 1 -11 -29c-5,5 -13,21 -13,28z" />
    <path fill="#EAF4E9" d="M1864 352l0 11c7,3 6,4 14,3 11,-14 2,-27 -14,-14z" />
</svg>